<svg height="496pt" viewBox="0 0 496 496" width="496pt" xmlns="http://www.w3.org/2000/svg"><path d="m489.105469 176.222656c4.453125-10.09375 6.894531-21.007812 6.894531-32.222656 0-44.113281-35.886719-80-80-80-15.238281 0-30.023438 4.359375-42.761719 12.464844-8.613281-30.304688-36.757812-52.464844-69.238281-52.464844-12.414062 0-24.433594 3.167969-35.167969 9.214844-16.648437-20.925782-41.839843-33.214844-68.832031-33.214844-27.601562 0-53.296875 12.832031-69.910156 34.617188-5.875-1.746094-11.929688-2.617188-18.089844-2.617188-29.351562 0-54.910156 20.351562-61.992188 48.320312-28.070312 2.992188-50.007812 26.824219-50.007812 55.679688 0 15.664062 6.480469 29.824219 16.886719 40h-8.886719c-4.414062 0-8 3.574219-8 8v304c0 4.425781 3.585938 8 8 8h480c4.414062 0 8-3.574219 8-8v-304c0-4.03125-3.023438-7.214844-6.894531-7.777344zm-473.105469-40.222656c0-22.054688 17.945312-40 39.71875-40.007812 4.226562.367187 8.242188-2.695313 8.832031-6.832032 3.351563-23.464844 23.753907-41.160156 47.449219-41.160156 6.222656 0 12.3125 1.191406 18.105469 3.558594 3.535156 1.441406 7.613281.183594 9.710937-3.015625 13.382813-20.375 35.878906-32.542969 60.183594-32.542969 24.238281 0 46.703125 12.121094 60.105469 32.40625 1.199219 1.824219 3.078125 3.066406 5.222656 3.464844 2.152344.394531 4.351563-.09375 6.113281-1.367188 9.582032-6.871094 20.847656-10.503906 32.558594-10.503906 28.894531 0 53.382812 22.550781 55.761719 51.34375.246093 3.039062 2.199219 5.664062 5.03125 6.785156 2.808593 1.144532 6.046875.542969 8.3125-1.503906 11.824219-10.730469 27.054687-16.625 42.894531-16.625 35.289062 0 64 28.710938 64 64 0 11.359375-3.121094 22.289062-8.761719 32h-415.238281c-22.054688 0-40-17.945312-40-40zm464 56v48h-464v-48zm-464 288v-224h464v224zm0 0"/><path d="m40 208h16v16h-16zm0 0"/><path d="m72 208h16v16h-16zm0 0"/><path d="m104 208h16v16h-16zm0 0"/><path d="m136 208h16v16h-16zm0 0"/><path d="m344 208h128v16h-128zm0 0"/><path d="m416 96v16c17.648438 0 32 14.351562 32 32h16c0-26.472656-21.527344-48-48-48zm0 0"/><path d="m32 136c0 13.230469 10.769531 24 24 24v-16c-4.40625 0-8-3.585938-8-8s3.59375-8 8-8v-16c-13.230469 0-24 10.769531-24 24zm0 0"/><path d="m128 272c-3.320312 0-6.296875 2.046875-7.480469 5.152344l-64 168 14.953125 5.703125 19.375-50.855469h74.304688l19.367187 50.847656 14.953125-5.703125-64-168c-1.175781-3.097656-4.152344-5.144531-7.472656-5.144531zm-31.054688 112 31.054688-81.527344 31.054688 81.527344zm0 0"/><path d="m312 280h-88c-4.414062 0-8 3.574219-8 8v160h16v-88h80c4.414062 0 8-3.574219 8-8v-64c0-4.425781-3.585938-8-8-8zm-8 64h-72v-48h72zm0 0"/><path d="m336 296h32v136h-32v16h80v-16h-32v-136h32v-16h-80zm0 0"/></svg>